<svg width="150" height="150" viewBox="0 0 150 150" fill="none" xmlns="http://www.w3.org/2000/svg">
<rect width="150" height="150" fill="#0A9F4E"/>
<path fill-rule="evenodd" clip-rule="evenodd" d="M75.0421 62.3763H61.7559C59.5534 62.3763 58.5587 62.9871 58.1679 64.2804L56.9246 68.3398H70.2108C72.4133 68.3398 73.408 67.7291 73.7988 66.4358L75.0421 62.3763Z" fill="white" fill-opacity="0.9"/>
<path fill-rule="evenodd" clip-rule="evenodd" d="M29.4995 58.9995H27.0128C22.0038 58.9995 17.7054 71.7528 23.638 71.7528H27.4391C29.6416 71.7528 31.2758 72.5431 30.5298 74.7345L29.5351 77.7163H25.4853L22.217 77.6803C18.0251 77.6444 15.2897 75.5608 14.3305 72.3994C13.2648 68.9866 14.7568 61.8376 19.0908 57.2751C21.6131 54.6167 25.0945 53.036 29.5351 53.036H37.7768L36.4979 56.7722C35.6808 59.1791 33.9401 58.9995 32.981 58.9995H29.4995Z" fill="white"/>
<path fill-rule="evenodd" clip-rule="evenodd" d="M78.0972 53H64.811C62.6085 53 61.6138 53.6107 61.223 54.904L59.9796 58.9635H73.2659C75.4684 58.9635 76.4631 58.3528 76.8538 57.0595L78.0972 53ZM71.7738 71.7168H58.4876C56.2851 71.7168 55.2904 72.3275 54.8996 73.6208L53.6562 77.6803H66.9425C69.145 77.6803 70.1397 77.0695 70.5305 75.7763L71.7738 71.7168Z" fill="white"/>
<path fill-rule="evenodd" clip-rule="evenodd" d="M44.7395 58.9636H48.0433C50.8498 58.9636 50.2103 62.5201 48.7894 66.0048C47.546 69.0584 45.3079 71.7528 42.6436 71.7528H37.1373C34.9347 71.7528 33.9401 72.3635 33.5138 73.6568L32.1638 77.7163H36.1781L40.1213 77.6803C43.6383 77.6444 46.4803 77.393 49.8551 74.3394C53.4076 71.1061 57.5284 62.7716 56.8179 57.9218C56.2851 54.1138 54.2602 53.036 49.3577 53.036H40.4766L35.29 68.3399H38.5583C40.5121 68.3399 41.5068 68.3759 42.537 65.5378L44.7395 58.9636Z" fill="white"/>
<path fill-rule="evenodd" clip-rule="evenodd" d="M72.8042 77.7163H79.0565L81.7564 69.9565L84.5629 67.5855L86.7654 74.6267C87.4404 76.7822 88.1508 77.7522 89.6784 77.7522H94.4742L89.5363 63.9571L101.402 53.036H93.7282L86.5167 60.7957C85.6641 61.6939 84.8115 62.592 83.9589 63.6697H83.8879L87.4759 53.036H81.2235L72.8042 77.7163Z" fill="white"/>
<path d="M110.46 69.4176C110.354 69.7768 110.176 70.1002 109.963 70.3876C109.714 70.675 109.43 70.9264 109.075 71.0701C108.684 71.2138 108.258 71.3216 107.867 71.3216C107.831 71.3216 107.796 71.3216 107.796 71.3216H105.451L106.659 67.334H109.004C109.501 67.334 109.892 67.4417 110.14 67.6214C110.389 67.801 110.567 68.0884 110.602 68.3758C110.602 68.4836 110.638 68.5913 110.638 68.6991C110.567 68.9506 110.531 69.202 110.46 69.4176ZM113.125 69.3817C113.373 68.5913 113.373 67.9088 113.196 67.2621C112.982 66.6514 112.556 66.1125 111.988 65.8251C111.384 65.4659 110.567 65.2863 109.572 65.2863H104.599L100.833 77.7162H103.462L104.776 73.2975H107.121C107.156 73.2975 107.192 73.2975 107.227 73.2975C108.116 73.2975 109.004 73.1178 109.856 72.8304C110.638 72.543 111.348 72.076 111.917 71.4653C112.485 70.8905 112.876 70.172 113.125 69.3817Z" fill="white"/>
<path d="M132.77 65.3223L128.4 70.9984L127.406 65.3223H124.528L126.375 73.2257L125.025 77.7163H127.69L129.04 73.2257L135.647 65.3223H132.77Z" fill="white"/>
<path d="M115.647 73.1179L118.702 68.3399L118.88 73.1179H115.647ZM120.158 65.3223H118.382L109.892 77.7163H112.698L114.368 75.0938H118.986L119.093 77.7163H121.899L120.833 65.3223H120.158Z" fill="white"/>
<path d="M36.3216 89.3125V95H35.5716V89.9297H32.7669V95H32.013V89.3125H36.3216ZM40.3236 90.7734V91.3711H38.2806V90.7734H40.3236ZM40.9603 90.7734V95H40.2377V90.7734H40.9603ZM38.1048 90.7734H38.8314L38.722 92.8125C38.7038 93.1276 38.6739 93.4062 38.6322 93.6484C38.5931 93.888 38.5384 94.0938 38.4681 94.2656C38.4004 94.4375 38.3145 94.5781 38.2103 94.6875C38.1088 94.7943 37.9864 94.8737 37.8431 94.9258C37.6999 94.9753 37.5345 95 37.347 95H37.1205V94.3633L37.2767 94.3516C37.3887 94.3438 37.4838 94.3177 37.5619 94.2734C37.6426 94.2292 37.7103 94.1641 37.765 94.0781C37.8197 93.9896 37.864 93.8763 37.8978 93.7383C37.9343 93.6003 37.9616 93.4362 37.9798 93.2461C38.0007 93.056 38.0163 92.8346 38.0267 92.582L38.1048 90.7734ZM44.5366 94.2773V92.1016C44.5366 91.9349 44.5027 91.7904 44.435 91.668C44.3699 91.543 44.2709 91.4466 44.1381 91.3789C44.0053 91.3112 43.8413 91.2773 43.6459 91.2773C43.4636 91.2773 43.3035 91.3086 43.1655 91.3711C43.0301 91.4336 42.9233 91.5156 42.8452 91.6172C42.7696 91.7188 42.7319 91.8281 42.7319 91.9453H42.0092C42.0092 91.7943 42.0483 91.6445 42.1264 91.4961C42.2045 91.3477 42.3165 91.2135 42.4623 91.0938C42.6108 90.9714 42.7879 90.875 42.9936 90.8047C43.2019 90.7318 43.4337 90.6953 43.6889 90.6953C43.9962 90.6953 44.267 90.7474 44.5014 90.8516C44.7384 90.9557 44.9233 91.1133 45.0561 91.3242C45.1915 91.5326 45.2592 91.7943 45.2592 92.1094V94.0781C45.2592 94.2188 45.2709 94.3685 45.2944 94.5273C45.3204 94.6862 45.3582 94.8229 45.4077 94.9375V95H44.6538C44.6173 94.9167 44.5886 94.806 44.5678 94.668C44.547 94.5273 44.5366 94.3971 44.5366 94.2773ZM44.6616 92.4375L44.6694 92.9453H43.9389C43.7332 92.9453 43.5496 92.9622 43.3881 92.9961C43.2267 93.0273 43.0913 93.0755 42.9819 93.1406C42.8725 93.2057 42.7892 93.2878 42.7319 93.3867C42.6746 93.4831 42.6459 93.5964 42.6459 93.7266C42.6459 93.8594 42.6759 93.9805 42.7358 94.0898C42.7957 94.1992 42.8855 94.2865 43.0053 94.3516C43.1277 94.4141 43.2774 94.4453 43.4545 94.4453C43.6759 94.4453 43.8712 94.3984 44.0405 94.3047C44.2097 94.2109 44.3439 94.0964 44.4428 93.9609C44.5444 93.8255 44.5991 93.694 44.6069 93.5664L44.9155 93.9141C44.8972 94.0234 44.8478 94.1445 44.767 94.2773C44.6863 94.4102 44.5782 94.5378 44.4428 94.6602C44.31 94.7799 44.1511 94.8802 43.9663 94.9609C43.784 95.0391 43.5782 95.0781 43.3491 95.0781C43.0626 95.0781 42.8113 95.0221 42.5952 94.9102C42.3816 94.7982 42.2149 94.6484 42.0952 94.4609C41.978 94.2708 41.9194 94.0586 41.9194 93.8242C41.9194 93.5977 41.9636 93.3984 42.0522 93.2266C42.1407 93.0521 42.2683 92.9076 42.435 92.793C42.6017 92.6758 42.8022 92.5872 43.0366 92.5273C43.2709 92.4674 43.5327 92.4375 43.8217 92.4375H44.6616ZM47.9761 90.7734V95H47.2495V90.7734H47.9761ZM49.3941 90.7734V91.3594H45.8589V90.7734H49.3941ZM51.4664 95.0781C51.1721 95.0781 50.9052 95.0286 50.6656 94.9297C50.4286 94.8281 50.2242 94.6862 50.0523 94.5039C49.8831 94.3216 49.7529 94.1055 49.6617 93.8555C49.5706 93.6055 49.525 93.332 49.525 93.0352V92.8711C49.525 92.5273 49.5758 92.2214 49.6773 91.9531C49.7789 91.6823 49.9169 91.4531 50.0914 91.2656C50.2659 91.0781 50.4638 90.9362 50.6852 90.8398C50.9065 90.7435 51.1357 90.6953 51.3727 90.6953C51.6747 90.6953 51.9352 90.7474 52.1539 90.8516C52.3753 90.9557 52.5563 91.1016 52.6969 91.2891C52.8375 91.474 52.9417 91.6927 53.0094 91.9453C53.0771 92.1953 53.1109 92.4688 53.1109 92.7656V93.0898H49.9547V92.5H52.3883V92.4453C52.3779 92.2578 52.3388 92.0755 52.2711 91.8984C52.206 91.7214 52.1018 91.5755 51.9586 91.4609C51.8154 91.3464 51.6201 91.2891 51.3727 91.2891C51.2086 91.2891 51.0576 91.3242 50.9195 91.3945C50.7815 91.4622 50.663 91.5638 50.5641 91.6992C50.4651 91.8346 50.3883 92 50.3336 92.1953C50.2789 92.3906 50.2516 92.6159 50.2516 92.8711V93.0352C50.2516 93.2357 50.2789 93.4245 50.3336 93.6016C50.3909 93.776 50.4729 93.9297 50.5797 94.0625C50.6891 94.1953 50.8206 94.2995 50.9742 94.375C51.1305 94.4505 51.3076 94.4883 51.5055 94.4883C51.7607 94.4883 51.9768 94.4362 52.1539 94.332C52.331 94.2279 52.4859 94.0885 52.6188 93.9141L53.0563 94.2617C52.9651 94.3997 52.8492 94.5312 52.7086 94.6562C52.568 94.7812 52.3948 94.8828 52.1891 94.9609C51.9859 95.0391 51.7451 95.0781 51.4664 95.0781ZM55.1559 93.1602L53.5544 90.7734H54.4255L55.5192 92.5234H56.363L56.2575 93.1602H55.1559ZM55.5505 93.0859L54.3239 95H53.4098L55.0934 92.5625L55.5505 93.0859ZM56.7341 90.7734V95H56.0114V90.7734H56.7341ZM59.1989 90.7734L57.5973 93.1602H56.4958L56.3825 92.5234H57.2302L58.3239 90.7734H59.1989ZM58.4255 95L57.195 93.0859L57.6598 92.5625L59.3395 95H58.4255ZM62.7947 92.6055V93.1914H60.5603V92.6055H62.7947ZM60.7127 90.7734V95H59.99V90.7734H60.7127ZM63.3806 90.7734V95H62.6541V90.7734H63.3806ZM65.0584 92.2266H66.328C66.6691 92.2266 66.9569 92.2865 67.1912 92.4062C67.4256 92.5234 67.6027 92.6862 67.7225 92.8945C67.8449 93.1003 67.9061 93.3346 67.9061 93.5977C67.9061 93.793 67.8722 93.9766 67.8045 94.1484C67.7368 94.3177 67.6353 94.4661 67.4998 94.5938C67.367 94.7214 67.2017 94.8216 67.0037 94.8945C66.8084 94.9648 66.5832 95 66.328 95H64.5311V90.7734H65.2537V94.4062H66.328C66.5363 94.4062 66.703 94.3685 66.828 94.293C66.953 94.2174 67.0428 94.1198 67.0975 94C67.1522 93.8802 67.1795 93.7552 67.1795 93.625C67.1795 93.4974 67.1522 93.3724 67.0975 93.25C67.0428 93.1276 66.953 93.026 66.828 92.9453C66.703 92.862 66.5363 92.8203 66.328 92.8203H65.0584V92.2266ZM69.41 90.7734V95H68.6873V90.7734H69.41ZM71.3769 93.8555L73.3261 90.7734H74.0527V95H73.3261V91.918L71.3769 95H70.6581V90.7734H71.3769V93.8555ZM72.9316 89.2422H73.5175C73.5175 89.4453 73.4706 89.6263 73.3769 89.7852C73.2831 89.9414 73.149 90.0638 72.9745 90.1523C72.8001 90.2409 72.593 90.2852 72.3534 90.2852C71.9915 90.2852 71.705 90.1888 71.4941 89.9961C71.2857 89.8008 71.1816 89.5495 71.1816 89.2422H71.7675C71.7675 89.3958 71.8118 89.5312 71.9003 89.6484C71.9889 89.7656 72.1399 89.8242 72.3534 89.8242C72.5618 89.8242 72.7102 89.7656 72.7988 89.6484C72.8873 89.5312 72.9316 89.3958 72.9316 89.2422ZM79.5294 94.2773V92.1016C79.5294 91.9349 79.4955 91.7904 79.4278 91.668C79.3627 91.543 79.2637 91.4466 79.1309 91.3789C78.9981 91.3112 78.8341 91.2773 78.6387 91.2773C78.4565 91.2773 78.2963 91.3086 78.1583 91.3711C78.0229 91.4336 77.9161 91.5156 77.838 91.6172C77.7624 91.7188 77.7247 91.8281 77.7247 91.9453H77.002C77.002 91.7943 77.0411 91.6445 77.1192 91.4961C77.1973 91.3477 77.3093 91.2135 77.4552 91.0938C77.6036 90.9714 77.7807 90.875 77.9864 90.8047C78.1947 90.7318 78.4265 90.6953 78.6817 90.6953C78.989 90.6953 79.2598 90.7474 79.4942 90.8516C79.7312 90.9557 79.9161 91.1133 80.0489 91.3242C80.1843 91.5326 80.252 91.7943 80.252 92.1094V94.0781C80.252 94.2188 80.2637 94.3685 80.2872 94.5273C80.3132 94.6862 80.351 94.8229 80.4005 94.9375V95H79.6466C79.6101 94.9167 79.5815 94.806 79.5606 94.668C79.5398 94.5273 79.5294 94.3971 79.5294 94.2773ZM79.6544 92.4375L79.6622 92.9453H78.9317C78.726 92.9453 78.5424 92.9622 78.3809 92.9961C78.2195 93.0273 78.0841 93.0755 77.9747 93.1406C77.8653 93.2057 77.782 93.2878 77.7247 93.3867C77.6674 93.4831 77.6387 93.5964 77.6387 93.7266C77.6387 93.8594 77.6687 93.9805 77.7286 94.0898C77.7885 94.1992 77.8783 94.2865 77.9981 94.3516C78.1205 94.4141 78.2703 94.4453 78.4473 94.4453C78.6687 94.4453 78.864 94.3984 79.0333 94.3047C79.2026 94.2109 79.3367 94.0964 79.4356 93.9609C79.5372 93.8255 79.5919 93.694 79.5997 93.5664L79.9083 93.9141C79.8901 94.0234 79.8406 94.1445 79.7598 94.2773C79.6791 94.4102 79.571 94.5378 79.4356 94.6602C79.3028 94.7799 79.144 94.8802 78.9591 94.9609C78.7768 95.0391 78.571 95.0781 78.3419 95.0781C78.0554 95.0781 77.8041 95.0221 77.588 94.9102C77.3744 94.7982 77.2078 94.6484 77.088 94.4609C76.9708 94.2708 76.9122 94.0586 76.9122 93.8242C76.9122 93.5977 76.9565 93.3984 77.045 93.2266C77.1335 93.0521 77.2611 92.9076 77.4278 92.793C77.5945 92.6758 77.795 92.5872 78.0294 92.5273C78.2637 92.4674 78.5255 92.4375 78.8145 92.4375H79.6544ZM84.0392 90.7734V91.3711H82.0861V95H81.3634V90.7734H84.0392ZM85.3108 91.5859V96.625H84.5842V90.7734H85.2483L85.3108 91.5859ZM88.1584 92.8516V92.9336C88.1584 93.2409 88.122 93.526 88.0491 93.7891C87.9761 94.0495 87.8694 94.276 87.7288 94.4688C87.5907 94.6615 87.4202 94.8112 87.217 94.918C87.0139 95.0247 86.7808 95.0781 86.5178 95.0781C86.2496 95.0781 86.0126 95.0339 85.8069 94.9453C85.6011 94.8568 85.4267 94.7279 85.2834 94.5586C85.1402 94.3893 85.0256 94.1862 84.9397 93.9492C84.8564 93.7122 84.7991 93.4453 84.7678 93.1484V92.7109C84.7991 92.3984 84.8577 92.1185 84.9436 91.8711C85.0295 91.6237 85.1428 91.4128 85.2834 91.2383C85.4267 91.0612 85.5998 90.9271 85.803 90.8359C86.0061 90.7422 86.2405 90.6953 86.5061 90.6953C86.7717 90.6953 87.0074 90.7474 87.2131 90.8516C87.4189 90.9531 87.592 91.099 87.7327 91.2891C87.8733 91.4792 87.9788 91.707 88.0491 91.9727C88.122 92.2357 88.1584 92.5286 88.1584 92.8516ZM87.4319 92.9336V92.8516C87.4319 92.6406 87.4097 92.4427 87.3655 92.2578C87.3212 92.0703 87.2522 91.9062 87.1584 91.7656C87.0673 91.6224 86.9501 91.5104 86.8069 91.4297C86.6636 91.3464 86.4931 91.3047 86.2952 91.3047C86.1129 91.3047 85.954 91.3359 85.8186 91.3984C85.6858 91.4609 85.5725 91.5456 85.4788 91.6523C85.385 91.7565 85.3082 91.8763 85.2483 92.0117C85.191 92.1445 85.148 92.2826 85.1194 92.4258V93.4375C85.1715 93.6198 85.2444 93.7917 85.3381 93.9531C85.4319 94.112 85.5569 94.2409 85.7131 94.3398C85.8694 94.4362 86.066 94.4844 86.303 94.4844C86.4983 94.4844 86.6663 94.444 86.8069 94.3633C86.9501 94.2799 87.0673 94.1667 87.1584 94.0234C87.2522 93.8802 87.3212 93.7161 87.3655 93.5312C87.4097 93.3438 87.4319 93.1445 87.4319 92.9336ZM90.7542 95.0781C90.4599 95.0781 90.193 95.0286 89.9534 94.9297C89.7165 94.8281 89.512 94.6862 89.3402 94.5039C89.1709 94.3216 89.0407 94.1055 88.9495 93.8555C88.8584 93.6055 88.8128 93.332 88.8128 93.0352V92.8711C88.8128 92.5273 88.8636 92.2214 88.9652 91.9531C89.0667 91.6823 89.2047 91.4531 89.3792 91.2656C89.5537 91.0781 89.7516 90.9362 89.973 90.8398C90.1943 90.7435 90.4235 90.6953 90.6605 90.6953C90.9626 90.6953 91.223 90.7474 91.4417 90.8516C91.6631 90.9557 91.8441 91.1016 91.9847 91.2891C92.1253 91.474 92.2295 91.6927 92.2972 91.9453C92.3649 92.1953 92.3988 92.4688 92.3988 92.7656V93.0898H89.2425V92.5H91.6761V92.4453C91.6657 92.2578 91.6266 92.0755 91.5589 91.8984C91.4938 91.7214 91.3896 91.5755 91.2464 91.4609C91.1032 91.3464 90.9079 91.2891 90.6605 91.2891C90.4964 91.2891 90.3454 91.3242 90.2073 91.3945C90.0693 91.4622 89.9508 91.5638 89.8519 91.6992C89.7529 91.8346 89.6761 92 89.6214 92.1953C89.5667 92.3906 89.5394 92.6159 89.5394 92.8711V93.0352C89.5394 93.2357 89.5667 93.4245 89.6214 93.6016C89.6787 93.776 89.7607 93.9297 89.8675 94.0625C89.9769 94.1953 90.1084 94.2995 90.262 94.375C90.4183 94.4505 90.5954 94.4883 90.7933 94.4883C91.0485 94.4883 91.2646 94.4362 91.4417 94.332C91.6188 94.2279 91.7738 94.0885 91.9066 93.9141L92.3441 94.2617C92.2529 94.3997 92.137 94.5312 91.9964 94.6562C91.8558 94.7812 91.6826 94.8828 91.4769 94.9609C91.2738 95.0391 91.0329 95.0781 90.7542 95.0781ZM95.893 90.7734V91.3711H93.9398V95H93.2172V90.7734H95.893ZM98.9341 94.2773V92.1016C98.9341 91.9349 98.9002 91.7904 98.8325 91.668C98.7674 91.543 98.6684 91.4466 98.5356 91.3789C98.4028 91.3112 98.2388 91.2773 98.0434 91.2773C97.8612 91.2773 97.701 91.3086 97.563 91.3711C97.4276 91.4336 97.3208 91.5156 97.2427 91.6172C97.1671 91.7188 97.1294 91.8281 97.1294 91.9453H96.4067C96.4067 91.7943 96.4458 91.6445 96.5239 91.4961C96.602 91.3477 96.714 91.2135 96.8598 91.0938C97.0083 90.9714 97.1854 90.875 97.3911 90.8047C97.5994 90.7318 97.8312 90.6953 98.0864 90.6953C98.3937 90.6953 98.6645 90.7474 98.8989 90.8516C99.1359 90.9557 99.3208 91.1133 99.4536 91.3242C99.589 91.5326 99.6567 91.7943 99.6567 92.1094V94.0781C99.6567 94.2188 99.6684 94.3685 99.6919 94.5273C99.7179 94.6862 99.7557 94.8229 99.8052 94.9375V95H99.0513C99.0148 94.9167 98.9862 94.806 98.9653 94.668C98.9445 94.5273 98.9341 94.3971 98.9341 94.2773ZM99.0591 92.4375L99.0669 92.9453H98.3364C98.1307 92.9453 97.9471 92.9622 97.7856 92.9961C97.6242 93.0273 97.4888 93.0755 97.3794 93.1406C97.27 93.2057 97.1867 93.2878 97.1294 93.3867C97.0721 93.4831 97.0434 93.5964 97.0434 93.7266C97.0434 93.8594 97.0734 93.9805 97.1333 94.0898C97.1932 94.1992 97.283 94.2865 97.4028 94.3516C97.5252 94.4141 97.675 94.4453 97.852 94.4453C98.0734 94.4453 98.2687 94.3984 98.438 94.3047C98.6072 94.2109 98.7414 94.0964 98.8403 93.9609C98.9419 93.8255 98.9966 93.694 99.0044 93.5664L99.313 93.9141C99.2947 94.0234 99.2453 94.1445 99.1645 94.2773C99.0838 94.4102 98.9757 94.5378 98.8403 94.6602C98.7075 94.7799 98.5487 94.8802 98.3638 94.9609C98.1815 95.0391 97.9757 95.0781 97.7466 95.0781C97.4601 95.0781 97.2088 95.0221 96.9927 94.9102C96.7791 94.7982 96.6125 94.6484 96.4927 94.4609C96.3755 94.2708 96.3169 94.0586 96.3169 93.8242C96.3169 93.5977 96.3612 93.3984 96.4497 93.2266C96.5382 93.0521 96.6658 92.9076 96.8325 92.793C96.9992 92.6758 97.1997 92.5872 97.4341 92.5273C97.6684 92.4674 97.9302 92.4375 98.2192 92.4375H99.0591ZM102.374 90.7734V95H101.647V90.7734H102.374ZM103.792 90.7734V91.3594H100.256V90.7734H103.792ZM104.067 92.9336V92.8438C104.067 92.5391 104.111 92.2565 104.2 91.9961C104.288 91.7331 104.416 91.5052 104.583 91.3125C104.749 91.1172 104.951 90.9661 105.188 90.8594C105.425 90.75 105.691 90.6953 105.985 90.6953C106.282 90.6953 106.549 90.75 106.786 90.8594C107.025 90.9661 107.228 91.1172 107.395 91.3125C107.564 91.5052 107.693 91.7331 107.782 91.9961C107.87 92.2565 107.915 92.5391 107.915 92.8438V92.9336C107.915 93.2383 107.87 93.5208 107.782 93.7812C107.693 94.0417 107.564 94.2695 107.395 94.4648C107.228 94.6576 107.027 94.8086 106.79 94.918C106.555 95.0247 106.29 95.0781 105.993 95.0781C105.696 95.0781 105.429 95.0247 105.192 94.918C104.955 94.8086 104.752 94.6576 104.583 94.4648C104.416 94.2695 104.288 94.0417 104.2 93.7812C104.111 93.5208 104.067 93.2383 104.067 92.9336ZM104.79 92.8438V92.9336C104.79 93.1445 104.814 93.3438 104.864 93.5312C104.913 93.7161 104.988 93.8802 105.087 94.0234C105.188 94.1667 105.314 94.2799 105.465 94.3633C105.617 94.444 105.792 94.4844 105.993 94.4844C106.191 94.4844 106.364 94.444 106.512 94.3633C106.663 94.2799 106.788 94.1667 106.887 94.0234C106.986 93.8802 107.061 93.7161 107.11 93.5312C107.162 93.3438 107.188 93.1445 107.188 92.9336V92.8438C107.188 92.6354 107.162 92.4388 107.11 92.2539C107.061 92.0664 106.985 91.901 106.883 91.7578C106.784 91.612 106.659 91.4974 106.508 91.4141C106.36 91.3307 106.186 91.2891 105.985 91.2891C105.787 91.2891 105.613 91.3307 105.462 91.4141C105.313 91.4974 105.188 91.612 105.087 91.7578C104.988 91.901 104.913 92.0664 104.864 92.2539C104.814 92.4388 104.79 92.6354 104.79 92.8438ZM109.464 91.5859V96.625H108.737V90.7734H109.401L109.464 91.5859ZM112.311 92.8516V92.9336C112.311 93.2409 112.275 93.526 112.202 93.7891C112.129 94.0495 112.022 94.276 111.882 94.4688C111.744 94.6615 111.573 94.8112 111.37 94.918C111.167 95.0247 110.934 95.0781 110.671 95.0781C110.402 95.0781 110.165 95.0339 109.96 94.9453C109.754 94.8568 109.579 94.7279 109.436 94.5586C109.293 94.3893 109.178 94.1862 109.092 93.9492C109.009 93.7122 108.952 93.4453 108.921 93.1484V92.7109C108.952 92.3984 109.01 92.1185 109.096 91.8711C109.182 91.6237 109.296 91.4128 109.436 91.2383C109.579 91.0612 109.753 90.9271 109.956 90.8359C110.159 90.7422 110.393 90.6953 110.659 90.6953C110.925 90.6953 111.16 90.7474 111.366 90.8516C111.572 90.9531 111.745 91.099 111.885 91.2891C112.026 91.4792 112.132 91.707 112.202 91.9727C112.275 92.2357 112.311 92.5286 112.311 92.8516ZM111.585 92.9336V92.8516C111.585 92.6406 111.563 92.4427 111.518 92.2578C111.474 92.0703 111.405 91.9062 111.311 91.7656C111.22 91.6224 111.103 91.5104 110.96 91.4297C110.816 91.3464 110.646 91.3047 110.448 91.3047C110.266 91.3047 110.107 91.3359 109.971 91.3984C109.839 91.4609 109.725 91.5456 109.632 91.6523C109.538 91.7565 109.461 91.8763 109.401 92.0117C109.344 92.1445 109.301 92.2826 109.272 92.4258V93.4375C109.324 93.6198 109.397 93.7917 109.491 93.9531C109.585 94.112 109.71 94.2409 109.866 94.3398C110.022 94.4362 110.219 94.4844 110.456 94.4844C110.651 94.4844 110.819 94.444 110.96 94.3633C111.103 94.2799 111.22 94.1667 111.311 94.0234C111.405 93.8802 111.474 93.7161 111.518 93.5312C111.563 93.3438 111.585 93.1445 111.585 92.9336Z" fill="white"/>
</svg>
